PathFileType	4	(X/Y/Z)	C:\Users\Basilio\Documents\Thesis Gigler\squatting_fais\c3dfiles\075\SJ_pre4\markers_experimental.trc
DataRate	CameraRate	NumFrames	NumMarkers	Units	OrigDataRate	OrigDataStartFrame	OrigNumFrames
200.000000	200.000000	4	61	mm	200.000000	0	1624
Frame#	Time	FHD			LBHD			RBHD			C7			T10			CLAV			LSHO			LUUPA			LMUPA			LDUPA			LLEP			LMEP			LRAD			LUL			LRFIN			RSHO			RUPA1			RMUPA			RDUPA			RLEP			RMEP			RRAD			RUL			RUFIN			LASI			RASI			USACR			LSACR			RSACR			LTHI1			LTHI2			LTHI3			LTHI4			LLFC			LMFC			LTIB1			LTIB2			LTIB3			LTIB4			LLMAL			LMMAL			LHEE			LMT1			LMT2			LMT5			RTHI			RTHI2			RTHI3			RTHI4			RLFC			RMFC			RTIB1			RTIB2			RTIB3			RTIB4			RLMAL			RMMAL			RHEE			RMT1			RMT2			RMT5			
		X1	Y1	Z1	X2	Y2	Z2	X3	Y3	Z3	X4	Y4	Z4	X5	Y5	Z5	X6	Y6	Z6	X7	Y7	Z7	X8	Y8	Z8	X9	Y9	Z9	X10	Y10	Z10	X11	Y11	Z11	X12	Y12	Z12	X13	Y13	Z13	X14	Y14	Z14	X15	Y15	Z15	X16	Y16	Z16	X17	Y17	Z17	X18	Y18	Z18	X19	Y19	Z19	X20	Y20	Z20	X21	Y21	Z21	X22	Y22	Z22	X23	Y23	Z23	X24	Y24	Z24	X25	Y25	Z25	X26	Y26	Z26	X27	Y27	Z27	X28	Y28	Z28	X29	Y29	Z29	X30	Y30	Z30	X31	Y31	Z31	X32	Y32	Z32	X33	Y33	Z33	X34	Y34	Z34	X35	Y35	Z35	X36	Y36	Z36	X37	Y37	Z37	X38	Y38	Z38	X39	Y39	Z39	X40	Y40	Z40	X41	Y41	Z41	X42	Y42	Z42	X43	Y43	Z43	X44	Y44	Z44	X45	Y45	Z45	X46	Y46	Z46	X47	Y47	Z47	X48	Y48	Z48	X49	Y49	Z49	X50	Y50	Z50	X51	Y51	Z51	X52	Y52	Z52	X53	Y53	Z53	X54	Y54	Z54	X55	Y55	Z55	X56	Y56	Z56	X57	Y57	Z57	X58	Y58	Z58	X59	Y59	Z59	X60	Y60	Z60	X61	Y61	Z61	

1	0	-93.64979553222658	1590.724609375	-901.503601074219	-281.7840881347657	1591.436645507813	-970.7424316406252	-228.9471282958985	1600.105834960938	-818.424255371094	-379.1295471191407	1468.663208007813	-913.0031738281252	-406.6746826171876	1136.599975585938	-910.7490844726565	-241.8902282714844	1392.576049804688	-904.6084594726565	-280.7126464843751	1431.379516601563	-1065.272827148438	-321.3288269042969	1284.043090820313	-1231.195068359375	-286.9255371093751	1248.043090820313	-1221.76318359375	-317.3342895507813	1225.673706054688	-1269.96337890625	-310.9914855957032	1142.305419921875	-1297.339721679688	-391.2560424804689	1130.474243164063	-1251.331420898438	-284.7494812011719	961.1448974609377	-1127.528686523438	-242.2132568359376	924.9812622070315	-1178.686645507813	-240.0783081054688	947.8719482421877	-1084.025390625	-291.9592285156251	1434.177612304688	-745.6780395507814	-358.7025451660157	1285.746704101563	-591.4590454101564	-328.6476745605469	1245.669799804688	-593.3903198242189	-369.7486267089844	1226.691650390625	-553.3558349609376	-371.2729797363282	1158.20458984375	-527.4348754882814	-442.2276611328126	1130.866943359375	-565.5810546875001	-270.8141174316407	939.8305664062502	-632.2094726562501	-311.4848327636719	961.8750000000002	-693.6655883789064	-248.5731506347657	958.3442993164065	-727.0451049804689	-237.7244415283204	953.2160644531252	-1029.872924804688	-243.0175323486329	962.952575683594	-779.2299804687502	-397.6871337890626	1038.265991210938	-912.234069824219	-403.3501892089845	1006.099731445313	-940.0755004882815	-404.4053039550782	1008.276489257813	-882.6748657226565	-291.5297241210938	726.3544311523439	-1116.48828125	-263.2346496582032	646.8724975585939	-1119.093139648438	-217.4895629882813	649.7882690429689	-1099.457641601563	-291.5392150878907	593.7760009765626	-1113.587158203125	-296.7553100585938	486.5845642089845	-1109.5537109375	-261.0650329589844	466.1306762695314	-991.529479980469	-253.9091796875001	357.5838317871094	-1087.379150390625	-315.5598144531251	327.4626159667969	-1140.281372070313	-275.6032714843751	316.2580261230469	-1120.857055664063	-287.6598815917969	234.9671630859376	-1098.988159179688	-380.1404113769532	102.1487274169922	-1125.914306640625	-345.1677856445313	107.2852401733399	-1046.671875	-431.4012451171876	58.90750885009767	-1080.414672851563	-217.8721160888672	51.91633605957033	-1082.340209960938	-224.0762786865235	55.50440979003908	-1130.44970703125	-269.4571228027344	40.53459548950196	-1178.859741210938	-313.1150512695313	775.7724609375002	-703.6189575195314	-275.4314270019532	722.0372924804689	-701.3413085937501	-244.1752319335938	726.6505737304689	-711.3770751953126	-304.9291076660157	641.2060546875001	-704.4170532226564	-318.4438476562501	487.173309326172	-724.7185668945314	-279.0686035156251	466.844207763672	-843.8848876953127	-277.0000610351563	332.6028747558594	-772.5872192382815	-333.6618957519532	263.3399047851563	-709.2792968750001	-297.2565002441407	253.7331237792969	-739.2091674804689	-307.3478393554688	206.709701538086	-770.8920898437502	-384.813446044922	92.00613403320314	-727.9286499023439	-349.4926757812501	108.5353927612305	-808.483093261719	-431.6305236816407	49.99946212768556	-783.4010009765627	-221.3075866699219	57.87294006347658	-765.7269287109376	-227.4515686035157	57.39561080932619	-723.5435791015626	-266.8309936523438	34.79134750366212	-674.0256347656251	
2	0.005	-94.20690155029298	1591.585083007813	-901.976989746094	-281.4426269531251	1591.58642578125	-970.3034667968752	-229.6229858398438	1600.222534179688	-818.9011840820315	-379.3653869628907	1468.4560546875	-913.2149658203127	-406.6643981933595	1136.443603515625	-911.077087402344	-242.0198669433594	1392.537475585938	-905.1595458984377	-281.0325622558594	1431.325439453125	-1065.679077148438	-321.7105712890626	1283.961547851563	-1231.488403320313	-287.2762756347657	1247.9541015625	-1222.14013671875	-317.6295471191407	1225.574096679688	-1270.262451171875	-311.3168640136719	1142.175903320313	-1297.700805664063	-391.4826660156251	1130.32861328125	-1251.647216796875	-284.8367919921876	961.0040283203127	-1127.89404296875	-242.2744598388672	924.9149169921877	-1179.118286132813	-239.3312377929688	947.4980468750002	-1084.06005859375	-291.9229736328126	1434.088745117188	-746.0650634765626	-358.3572692871094	1285.632690429688	-591.7615966796876	-328.3533020019532	1245.58154296875	-593.7364501953126	-369.3821411132813	1226.5458984375	-553.6419677734376	-370.8867492675782	1158.038940429688	-527.7678222656251	-441.7804565429689	1130.684814453125	-565.8052978515626	-270.4030761718751	939.739196777344	-632.7182617187501	-311.0399169921876	961.860290527344	-694.1295166015626	-248.1725311279297	958.2867431640627	-727.4705810546876	-237.743392944336	953.053894042969	-1030.339721679688	-242.6914215087891	962.9375000000002	-779.7365722656252	-397.6678771972657	1038.167358398438	-912.656921386719	-403.2526245117189	1005.911743164063	-940.4609375000002	-404.288055419922	1008.105895996094	-883.0223388671877	-291.5687255859376	726.0368041992189	-1116.759155273438	-263.3401489257813	646.5448608398439	-1119.422973632813	-217.6515808105469	649.3597412109376	-1099.695922851563	-291.7154846191407	593.4287109375001	-1113.696533203125	-296.9617919921876	486.2088012695314	-1109.549682617188	-261.2503356933594	465.8286132812501	-991.5728149414065	-254.0912628173829	357.3161926269532	-1087.384765625	-315.8229675292969	327.0907592773438	-1140.1455078125	-275.8208007812501	315.8859558105469	-1120.803833007813	-287.8031005859376	234.6785583496094	-1098.795776367188	-380.2687988281251	101.8834075927735	-1125.658813476563	-345.2483215332032	106.9276428222657	-1046.456176757813	-431.4282836914064	58.38657760620119	-1080.135375976563	-217.9249267578126	51.90340423583986	-1082.238403320313	-224.1619567871094	55.56972503662111	-1130.409912109375	-269.4448547363282	40.58866119384766	-1178.811401367188	-312.8186950683594	775.756774902344	-703.9874267578126	-275.1819152832032	722.0266113281251	-701.6753540039064	-243.8469696044922	726.6939697265626	-711.7890625000001	-304.6635131835938	641.1954345703126	-704.6713867187501	-318.2354736328126	487.166717529297	-724.9269409179689	-278.8135986328126	466.7632141113282	-844.1005859375002	-276.8693542480469	332.5488891601563	-772.7178955078127	-333.5900573730469	263.4084472656251	-709.3641357421876	-296.5028381347657	253.5908203125001	-738.9367675781251	-307.2287597656251	206.7098236083985	-770.9569091796877	-384.7808837890626	92.02630615234376	-727.9699707031251	-349.3561401367188	108.4950866699219	-808.4854125976565	-431.5801086425782	49.98449707031251	-783.4349365234377	-221.2851867675782	57.90563201904298	-765.7362670898439	-227.4715576171876	57.37952041625978	-723.5520629882814	-266.8571166992188	34.79138183593751	-674.0314941406251	
3	0.01	-94.77698516845705	1592.351684570313	-902.5961914062502	-282.3425598144532	1591.424072265625	-970.832946777344	-230.256332397461	1600.331665039063	-819.5407714843752	-379.5814819335938	1468.2607421875	-913.574645996094	-406.6301574707032	1136.230346679688	-911.4340820312502	-242.1652069091797	1392.45849609375	-905.6634521484377	-281.3193664550782	1431.263916015625	-1066.1220703125	-322.1851806640626	1283.735107421875	-1231.830444335938	-287.7184143066407	1247.811279296875	-1222.603149414063	-317.9925231933594	1225.398193359375	-1270.601196289063	-311.6668701171876	1142.011352539063	-1298.082153320313	-391.7542114257814	1130.160034179688	-1251.880004882813	-284.9131774902344	960.799011230469	-1128.326538085938	-242.3816070556641	924.7803344726565	-1179.615478515625	-239.3495178222657	947.3225097656252	-1084.499145507813	-291.8495788574219	1433.966918945313	-746.4605102539064	-358.0049438476563	1285.467041015625	-592.0447998046876	-328.0384521484376	1245.420776367188	-594.0983276367189	-368.9999694824219	1226.367431640625	-553.9661865234376	-370.4505615234376	1157.898559570313	-528.0851440429689	-441.394256591797	1130.49267578125	-566.0739746093751	-269.9537658691407	939.6262817382815	-633.2688598632814	-310.6702270507813	961.7707519531252	-694.5335083007814	-247.8030853271485	958.269714355469	-727.9901123046876	-237.7801513671876	952.8004150390627	-1030.849975585938	-242.3865051269532	962.8936767578127	-780.317810058594	-397.5681762695314	1037.963989257813	-913.1435546875002	-403.1773681640626	1005.709411621094	-940.9031372070315	-404.119598388672	1007.915222167969	-883.4746093750002	-290.6749572753907	725.2958984375001	-1116.589965820313	-263.5926208496094	646.1478881835939	-1119.674560546875	-217.8269500732422	648.9868774414064	-1099.915649414063	-291.9151306152344	593.0607299804689	-1113.768676757813	-297.2430725097657	485.7381286621095	-1109.432006835938	-261.4579162597657	465.5271606445314	-991.5972900390627	-254.3444519042969	357.0104370117188	-1087.270385742188	-316.0770263671876	326.7010192871094	-1140.02001953125	-276.0572509765626	315.4799804687501	-1120.65234375	-287.9946594238282	234.2601165771485	-1098.572875976563	-380.4161376953126	101.5995254516602	-1125.399658203125	-345.3719482421876	106.5111770629883	-1046.174926757813	-431.5062255859376	57.85807037353517	-1079.808349609375	-217.9160766601563	51.90067672729494	-1082.15576171875	-224.2290496826172	55.63794708251955	-1130.299682617188	-269.4689636230469	40.72634887695313	-1178.71484375	-312.5247192382813	775.802673339844	-704.3428955078126	-274.8948364257813	722.0172119140626	-702.0258789062501	-243.6013488769532	726.6468505859376	-712.1468505859376	-304.4207153320313	641.1976928710939	-704.9151611328126	-318.0444030761719	487.1631164550782	-725.1170654296876	-278.6409606933594	466.6715698242189	-844.2383422851565	-276.7512512207032	332.4943847656251	-772.789733886719	-333.5096435546876	263.3933410644532	-709.4476318359376	-296.4765319824219	253.5397644042969	-739.0240478515626	-307.0997314453126	206.6428375244141	-771.0361328125002	-384.7662963867189	92.02395629882814	-728.0338745117189	-349.4447937011719	108.4968185424805	-808.5877685546877	-431.6252441406251	50.01483535766603	-783.4401855468752	-221.300033569336	57.88165283203126	-765.7169189453126	-227.4507751464844	57.35139083862306	-723.5808715820314	-266.8531799316407	34.81136322021485	-674.0465087890626	
4	0.015	-95.55148315429689	1593.270141601563	-903.168884277344	-284.0369873046876	1590.857543945313	-972.0892333984377	-231.3474426269532	1600.689575195313	-820.9849243164065	-379.8093566894532	1467.9892578125	-913.8383789062502	-406.6463623046876	1135.979858398438	-911.8489990234377	-242.2698211669922	1392.365966796875	-906.166442871094	-281.6637573242188	1431.157836914063	-1066.614624023438	-322.6628112792969	1283.62060546875	-1232.217041015625	-289.2203369140626	1247.971557617188	-1223.401733398438	-318.4555053710938	1225.259765625	-1271.026733398438	-312.0324096679688	1141.784423828125	-1298.390502929688	-392.0715942382814	1129.9306640625	-1252.183349609375	-285.0050659179688	960.6151123046877	-1128.72509765625	-242.5421600341797	924.6397094726565	-1180.102294921875	-239.3648376464844	947.081726074219	-1084.984497070313	-291.8318481445313	1433.831909179688	-746.8871459960939	-357.6719360351563	1285.291748046875	-592.3710327148439	-327.6313476562501	1245.23291015625	-594.4905395507814	-368.5621337890626	1226.182006835938	-554.3188476562501	-369.9491882324219	1157.648803710938	-528.4671630859376	-440.9745483398439	1130.217895507813	-566.3691406250001	-269.4913635253907	939.5156250000002	-633.7150878906251	-310.2832031250001	961.6560058593752	-695.0178833007814	-247.4548034667969	958.2009887695315	-728.4648437500001	-237.8407592773438	952.4876708984377	-1031.384521484375	-242.0286560058594	962.8750000000002	-780.8527832031252	-397.5293273925782	1037.758178710938	-913.6356201171877	-403.2022399902345	1005.533996582031	-941.2802734375002	-404.0036621093751	1007.76416015625	-883.8216552734377	-290.9198303222657	724.9275512695314	-1116.90771484375	-262.8400268554688	645.3502197265626	-1119.415771484375	-218.0789794921876	648.5988159179689	-1100.09130859375	-292.1346740722657	592.6562500000001	-1113.872192382813	-297.5934753417969	485.3943176269532	-1109.396484375	-261.5883483886719	465.2934875488282	-991.550964355469	-254.6106872558594	356.6832580566407	-1087.139526367188	-316.4086608886719	326.4092712402344	-1139.886474609375	-276.3778076171876	315.0413208007813	-1120.497436523438	-288.2755737304688	233.9030151367188	-1098.360961914063	-380.5638732910157	101.1632766723633	-1125.076538085938	-345.4098205566407	106.0878829956055	-1045.891723632813	-431.5750732421876	57.25276947021486	-1079.457641601563	-217.9453735351563	51.87157058715822	-1082.026245117188	-224.2710571289063	55.66110229492189	-1130.1884765625	-269.5939636230469	40.7539176940918	-1178.58056640625	-312.2398681640626	775.785583496094	-704.7465209960939	-274.5598449707032	722.0109863281251	-702.3499755859376	-243.2938079833985	726.6463623046876	-712.5275268554689	-304.1506652832032	641.2256469726564	-705.2218017578126	-317.8481750488282	487.135223388672	-725.3396606445314	-278.4715270996094	466.6013488769532	-844.4370117187502	-276.5623779296876	332.4142150878907	-772.9404296875002	-333.4762268066407	263.3635864257813	-709.5554809570314	-296.3901672363282	253.5382843017579	-739.1498413085939	-307.0486755371094	206.5939331054688	-771.0991210937502	-384.7483215332032	92.06235504150392	-728.0523071289064	-349.3720397949219	108.4892272949219	-808.6557617187502	-431.045623779297	49.69771194458009	-783.5278320312502	-221.2798004150391	57.85977935791017	-765.6888427734376	-227.464584350586	57.34213256835939	-723.5591430664064	-266.8527832031251	34.81468200683594	-674.0289306640626	
